<?xml version="1.0" standalone="no"?>
<!DOCTYPE svg PUBLIC "-//W3C//DTD SVG 20010904//EN"
 "http://www.w3.org/TR/2001/REC-SVG-20010904/DTD/svg10.dtd">
<svg version="1.0" xmlns="http://www.w3.org/2000/svg"
 width="1024.000000pt" height="1024.000000pt" viewBox="0 0 1024.000000 1024.000000"
 preserveAspectRatio="xMidYMid meet">

<g transform="translate(0.000000,1024.000000) scale(0.100000,-0.100000)"
fill="#000000" stroke="none">
<path d="M4666 8565 c-65 -18 -164 -68 -201 -103 -148 -137 -207 -348 -150
-543 18 -64 47 -116 95 -174 55 -65 486 -481 525 -506 41 -26 148 -26 190 0
37 23 324 292 466 437 65 66 117 130 133 161 73 145 73 331 0 475 -55 109
-181 211 -307 249 -99 31 -248 24 -330 -14 -52 -24 -61 -25 -80 -13 -68 44
-239 59 -341 31z m201 -321 c22 -11 32 -22 29 -31 -3 -8 -2 -12 3 -9 4 3 16
-3 25 -13 13 -15 14 -20 4 -24 -9 -4 -8 -6 3 -6 20 -1 70 -26 65 -32 -3 -2 8
-4 22 -3 42 1 101 33 129 71 15 20 32 32 40 29 8 -3 11 -2 8 4 -3 5 13 14 35
21 112 34 236 -87 214 -209 -11 -61 -37 -94 -226 -277 l-182 -175 -125 124
c-69 68 -154 150 -189 182 -78 71 -92 97 -92 169 0 64 17 111 51 141 60 54
124 67 186 38z"/>
<path d="M4724 8214 c-18 -14 -18 -14 6 -3 31 14 36 19 24 19 -6 0 -19 -7 -30
-16z"/>
<path d="M5160 8188 c0 -19 2 -20 10 -8 13 19 13 30 0 30 -5 0 -10 -10 -10
-22z"/>
<path d="M2985 8201 c-102 -46 -150 -124 -150 -241 0 -86 16 -128 72 -183 49
-50 97 -70 175 -75 83 -5 124 8 183 60 68 60 90 107 90 198 0 113 -52 197
-149 241 -55 25 -167 25 -221 0z"/>
<path d="M6724 8206 c-93 -41 -154 -138 -154 -246 1 -107 49 -188 142 -234
103 -51 245 -25 314 57 116 137 76 341 -80 413 -59 27 -170 32 -222 10z"/>
<path d="M1790 7881 c-112 -23 -180 -110 -180 -229 0 -169 178 -278 330 -201
68 34 129 126 130 195 0 42 -23 117 -48 151 -42 59 -155 100 -232 84z"/>
<path d="M7889 7532 c-120 -63 -156 -217 -78 -335 55 -83 181 -122 273 -83 90
38 153 139 143 232 -18 170 -188 264 -338 186z"/>
<path d="M2425 7045 c-100 -18 -177 -58 -250 -129 -219 -215 -186 -573 69
-738 33 -21 77 -43 98 -50 l38 -11 0 -1494 c0 -1326 2 -1498 15 -1531 20 -47
50 -78 100 -105 37 -20 57 -22 256 -25 l216 -3 -24 -77 c-13 -42 -27 -111 -31
-152 l-7 -75 -720 -5 c-800 -6 -762 -2 -805 -73 -43 -70 -35 -148 21 -212 41
-46 79 -55 247 -55 l142 0 0 -240 c0 -222 2 -244 20 -280 53 -105 206 -131
294 -51 60 55 66 82 66 339 l0 232 399 0 399 0 30 -65 c190 -406 605 -624
1043 -549 175 30 344 108 474 219 76 66 169 191 223 302 l45 93 342 0 343 0
17 -42 c54 -137 203 -323 329 -413 372 -263 913 -222 1234 95 40 39 90 96 112
125 39 53 101 167 114 213 l7 22 400 0 399 0 0 -237 c0 -209 3 -243 19 -278
22 -48 44 -69 94 -90 81 -33 177 -5 225 68 l27 40 5 246 5 246 155 5 c170 6
196 14 243 70 64 76 37 203 -53 251 -33 18 -73 19 -747 19 l-713 0 0 39 c0 43
-20 148 -43 223 l-15 47 472 3 c464 3 472 3 512 25 85 45 127 129 106 208 -6
24 -100 225 -208 447 -108 221 -198 410 -201 419 -2 9 11 47 30 85 79 157 124
381 113 560 -8 136 -54 312 -115 439 -132 274 -376 489 -681 598 l-65 23 -3
214 -2 215 44 28 c124 78 206 224 206 368 0 229 -141 409 -357 454 -83 18
-849 21 -952 5 -112 -19 -213 -83 -282 -179 -94 -131 -106 -331 -29 -481 28
-54 133 -161 178 -179 l32 -13 0 -199 0 -199 -615 0 -615 0 0 160 0 160 62 31
c75 38 154 116 190 190 99 198 67 412 -86 565 -76 76 -181 130 -281 144 -111
15 -2222 11 -2310 -5z m2346 -352 c66 -39 84 -139 36 -199 -44 -56 7 -54
-1213 -54 -1243 0 -1169 -4 -1215 62 -41 57 -19 150 44 188 31 19 59 20 1175
20 1066 0 1146 -1 1173 -17z m2327 3 c85 -46 79 -172 -10 -226 -31 -19 -51
-20 -428 -20 -356 0 -398 2 -430 18 -70 35 -100 120 -64 181 36 61 29 60 489
60 323 0 425 -3 443 -13z m-198 -741 l0 -155 -244 0 -244 0 3 63 c1 34 3 104
4 155 l1 92 240 0 240 0 0 -155z m-3700 -291 c50 -80 163 -108 245 -60 41 25
78 81 89 136 l5 25 192 -3 c149 -2 194 0 200 10 6 8 9 2 9 -18 0 -62 46 -131
107 -163 12 -6 46 -11 76 -11 82 0 141 47 172 136 l13 39 104 0 103 0 3 -42
c2 -33 0 -42 -10 -38 -15 6 -90 -18 -110 -35 -7 -5 -26 -20 -41 -31 -29 -22
-67 -87 -67 -114 0 -9 -7 -18 -15 -21 -9 -4 -15 -19 -15 -35 0 -16 -1 -29 -3
-29 -2 0 -22 9 -45 20 -80 39 -153 19 -204 -56 -91 -132 -150 -169 -273 -168
-130 0 -200 42 -288 174 -59 88 -180 94 -250 11 -58 -69 -24 -220 75 -327 119
-129 272 -194 460 -194 170 0 315 57 425 167 l64 64 532 -2 c293 -1 938 -1
1435 -1 l902 1 1 -227 c1 -125 1 -461 -1 -748 l-2 -521 28 -32 c42 -46 76 -52
165 -30 76 20 244 96 312 143 21 14 42 26 47 26 6 0 10 5 10 11 0 6 7 8 16 5
8 -3 13 -2 10 3 -3 4 5 18 17 29 l23 22 117 -236 c64 -129 117 -237 117 -239
0 -3 -198 -5 -440 -5 l-440 0 -73 61 c-87 73 -257 160 -372 189 -106 27 -291
37 -390 21 -166 -27 -327 -98 -463 -206 l-82 -65 -561 0 -561 0 -74 59 c-131
106 -272 171 -444 206 -102 21 -312 16 -403 -9 -89 -25 -213 -76 -276 -114
-31 -19 -61 -35 -68 -35 -7 0 -11 -3 -10 -7 1 -3 -24 -27 -55 -53 l-58 -47
-235 0 -235 0 0 1230 0 1230 225 0 c173 0 225 3 226 13 1 6 5 -7 10 -31 4 -24
18 -59 29 -78z m1344 -40 c3 -8 2 -12 -4 -9 -6 3 -10 10 -10 16 0 14 7 11 14
-7z m2989 -417 c94 -96 168 -213 205 -326 20 -60 26 -103 29 -206 7 -202 -25
-321 -128 -474 -57 -85 -177 -211 -202 -211 -9 0 -12 138 -12 608 0 674 0 692
16 692 6 0 48 -37 92 -83z m-1190 -1974 c-7 -2 -19 -2 -25 0 -7 3 -2 5 12 5
14 0 19 -2 13 -5z m90 0 c-13 -2 -35 -2 -50 0 -16 2 -5 4 22 4 28 0 40 -2 28
-4z m-146 -9 c-3 -3 -12 -4 -19 -1 -8 3 -5 6 6 6 11 1 17 -2 13 -5z m226 -1
c-7 -2 -19 -2 -25 0 -7 3 -2 5 12 5 14 0 19 -2 13 -5z m-1048 -280 c-20 -53
-46 -167 -52 -225 l-6 -68 -282 0 -282 0 -6 68 c-6 62 -34 184 -52 225 -7 16
13 17 340 17 327 0 347 -1 340 -17z m-1480 -77 c91 -43 165 -149 165 -237 0
-21 7 -29 31 -38 42 -14 66 -14 72 2 4 9 7 9 14 0 5 -7 48 -13 115 -15 l107
-3 4 25 c3 14 3 -5 1 -42 -19 -324 -355 -584 -694 -538 -157 22 -267 75 -375
184 -72 73 -144 193 -129 217 4 7 3 9 -3 6 -13 -8 -38 106 -28 124 5 8 4 10
-3 5 -8 -5 -12 2 -11 21 0 23 2 25 8 9 5 -13 10 -16 15 -8 8 14 264 16 300 3
23 -9 24 -8 28 52 9 109 73 203 161 239 63 26 161 23 222 -6z m2492 11 c88
-33 160 -131 172 -237 l6 -55 103 -3 102 -3 2 -37 1 -37 4 35 4 35 52 0 c29
-1 58 4 66 10 23 16 7 -93 -16 -112 -10 -8 -12 -12 -5 -8 16 8 16 3 -12 -64
-43 -107 -168 -263 -197 -246 -5 4 -8 1 -7 -6 4 -19 -97 -76 -187 -106 -126
-41 -292 -35 -422 14 -24 9 -40 20 -36 26 3 6 1 7 -5 3 -31 -19 -213 139 -270
233 -33 57 -68 157 -77 222 l-7 52 43 -7 c60 -9 59 -9 190 -8 l117 2 7 56 c3
30 13 71 21 90 27 64 103 134 169 155 33 11 148 8 182 -4z m-2164 -284 c-7 -2
-19 -2 -25 0 -7 3 -2 5 12 5 14 0 19 -2 13 -5z"/>
<path d="M7696 3752 c-3 -5 1 -9 9 -9 8 0 12 4 9 9 -3 4 -7 8 -9 8 -2 0 -6 -4
-9 -8z"/>
<path d="M2730 3736 c7 -7 13 -7 20 0 6 6 3 10 -10 10 -13 0 -16 -4 -10 -10z"/>
<path d="M2988 3743 c17 -2 47 -2 65 0 17 2 3 4 -33 4 -36 0 -50 -2 -32 -4z"/>
<path d="M3250 3746 c0 -2 7 -7 16 -10 8 -3 12 -2 9 4 -6 10 -25 14 -25 6z"/>
<path d="M7599 3673 c-6 -7 -7 -13 -2 -13 5 0 17 6 27 13 16 12 17 14 2 14 -9
0 -21 -6 -27 -14z"/>
<path d="M6363 3593 c9 -2 23 -2 30 0 6 3 -1 5 -18 5 -16 0 -22 -2 -12 -5z"/>
<path d="M6513 3583 c9 -2 25 -2 35 0 9 3 1 5 -18 5 -19 0 -27 -2 -17 -5z"/>
<path d="M7806 3557 c3 -10 9 -15 12 -12 3 3 0 11 -7 18 -10 9 -11 8 -5 -6z"/>
<path d="M6626 2515 c-9 -26 -7 -32 5 -12 6 10 9 21 6 23 -2 3 -7 -2 -11 -11z"/>
<path d="M6965 2500 c3 -5 8 -10 11 -10 2 0 4 5 4 10 0 6 -5 10 -11 10 -5 0
-7 -4 -4 -10z"/>
<path d="M6574 2438 l-19 -23 23 19 c12 11 22 21 22 23 0 8 -8 2 -26 -19z"/>
<path d="M6850 2259 c0 -5 5 -7 10 -4 6 3 10 8 10 11 0 2 -4 4 -10 4 -5 0 -10
-5 -10 -11z"/>
<path d="M6816 2242 c-3 -5 1 -9 9 -9 8 0 12 4 9 9 -3 4 -7 8 -9 8 -2 0 -6 -4
-9 -8z"/>
</g>
</svg>
